<svg width="1230" height="260" viewBox="0 0 1230 260" fill="none" xmlns="http://www.w3.org/2000/svg">
<g clip-path="url(#clip0_1_2)">
<rect width="1230" height="260" fill="white"/>
<g clip-path="url(#clip1_1_2)">
<mask id="mask0_1_2" style="mask-type:luminance" maskUnits="userSpaceOnUse" x="0" y="0" width="260" height="260">
<path d="M260 0H0V260H260V0Z" fill="white"/>
</mask>
<g mask="url(#mask0_1_2)">
<path d="M260 0H0V260H260V0Z" fill="white"/>
<path d="M48.0833 -48L0 0.083252L138.593 138.676L186.676 90.5929L48.0833 -48Z" fill="#E40616"/>
<path d="M267.5 -10L315.583 38.0833L47.3541 306.312L-0.729187 258.229L267.5 -10Z" fill="black"/>
</g>
</g>
<path d="M342.036 103.649L318.55 104.01C317.526 104.01 316.924 103.86 316.743 103.559C316.562 103.318 316.472 102.715 316.472 101.752V86.5762C316.472 85.6126 316.593 85.0405 316.833 84.8599C317.074 84.6792 317.646 84.5889 318.55 84.5889L342.036 84.9502H384.402C384.763 79.8314 385.064 71.4907 385.305 59.9282C385.305 58.6034 385.305 57.158 385.305 55.5923C385.305 49.3895 385.004 43.6986 384.402 38.5195C394.158 38.8206 401.234 39.3024 405.63 39.9648C407.858 40.4466 408.972 41.3198 408.972 42.5845C408.972 43.6685 408.611 44.9632 407.888 46.4688C406.925 48.1549 406.353 52.4608 406.172 59.3862C405.931 71.009 405.57 79.5303 405.088 84.9502H452.783L476.36 84.5889C477.323 84.5889 477.896 84.7093 478.076 84.9502C478.257 85.1911 478.347 85.7331 478.347 86.5762V101.752C478.347 102.836 478.227 103.498 477.986 103.739C477.745 103.92 477.203 104.01 476.36 104.01L452.783 103.649H408.611C414.934 123.642 424.84 140.745 438.33 154.958C450.796 168.026 465.55 177.812 482.593 184.315C478.317 188.41 474.734 193.048 471.843 198.227C470.217 201.298 468.923 202.833 467.959 202.833C467.417 202.833 466.002 202.201 463.713 200.937C432.699 184.376 410.749 159.474 397.861 126.232C396.115 132.194 393.766 138.126 390.815 144.027C378.59 169.14 358.868 188.38 331.648 201.75C329.299 202.713 327.824 203.195 327.222 203.195C326.198 203.195 324.783 201.78 322.976 198.949C320.326 194.975 316.803 191.09 312.407 187.296C340.651 176.396 360.645 159.414 372.388 136.349C377.025 127.015 380.337 116.115 382.324 103.649H342.036ZM602.012 198.769H586.836C585.571 198.769 584.939 198.076 584.939 196.691L585.391 135.446V101.12L584.939 55.0503C584.939 53.6652 585.571 52.9727 586.836 52.9727L607.703 53.334H635.525L656.392 52.9727C657.355 52.9727 657.957 53.0931 658.198 53.334C658.379 53.5749 658.469 54.147 658.469 55.0503L658.108 95.519V134.723L658.469 194.704C658.469 195.607 658.349 196.149 658.108 196.33C657.867 196.57 657.295 196.691 656.392 196.691H641.035C640.072 196.691 639.469 196.57 639.229 196.33C639.048 196.089 638.958 195.547 638.958 194.704V183.773H604.089V196.691C604.089 197.654 603.939 198.257 603.638 198.498C603.457 198.678 602.915 198.769 602.012 198.769ZM604.089 71.3101V165.797H638.958V71.3101H604.089ZM554.858 106.63H554.497C561.483 118.795 570.125 129.424 580.422 138.517C577.291 142.672 574.822 147.099 573.015 151.796C572.112 154.145 571.389 155.319 570.847 155.319C570.305 155.319 569.191 154.265 567.505 152.157C560.64 144.027 555.009 134.964 550.613 124.967L551.516 203.827C551.516 205.032 550.914 205.634 549.709 205.634H533.811C532.727 205.634 532.095 205.513 531.914 205.272C531.733 205.092 531.643 204.61 531.643 203.827C531.643 203.345 531.703 199.521 531.824 192.355C532.366 170.495 532.727 149.507 532.908 129.394C527.126 145.473 519.027 160.287 508.608 173.837C507.163 175.704 506.049 176.637 505.266 176.637C504.543 176.637 503.821 175.644 503.098 173.656C500.93 167.213 498.521 162.274 495.872 158.842C509.903 143.546 520.894 126.142 528.843 106.63H523.784L502.375 106.991C501.412 106.991 500.81 106.871 500.569 106.63C500.388 106.389 500.298 105.847 500.298 105.004V91.6348C500.298 90.6712 500.418 90.0991 500.659 89.9185C500.9 89.7378 501.472 89.6475 502.375 89.6475L523.784 90.0088H532.546V67.7871C526.765 69.2324 520.532 70.5272 513.848 71.6714C512.041 71.9725 510.867 72.123 510.325 72.123C509.301 72.123 508.518 71.7015 507.976 70.8584C507.615 70.3766 507.043 69.112 506.26 67.0645C504.694 63.0898 502.707 59.6873 500.298 56.8569C519.328 54.5083 537.575 49.9014 555.039 43.0361C558.532 41.5908 561.694 39.9347 564.524 38.0679C569.161 41.5607 573.286 45.3245 576.899 49.3594C577.983 50.624 578.525 51.708 578.525 52.6113C578.525 54.0566 577.502 54.8696 575.454 55.0503C574.189 55.1105 571.54 55.9235 567.505 57.4893C562.025 59.4766 556.514 61.2531 550.974 62.8188V90.0088H554.858L576.357 89.6475C577.441 89.6475 578.074 89.7679 578.254 90.0088C578.495 90.2497 578.616 90.7917 578.616 91.6348V105.004C578.616 105.967 578.465 106.54 578.164 106.72C577.923 106.901 577.321 106.991 576.357 106.991L554.858 106.63ZM709.597 151.796L686.653 152.157C685.689 152.157 685.117 152.037 684.937 151.796C684.756 151.555 684.666 151.013 684.666 150.17V137.885C684.666 136.921 684.786 136.349 685.027 136.168C685.268 135.988 685.81 135.897 686.653 135.897L709.597 136.259H762.17C762.17 134.392 762.05 131.501 761.809 127.587H757.925H756.389C755.305 127.587 754.583 127.376 754.221 126.955C753.92 126.593 753.679 125.81 753.499 124.606C752.836 121.053 751.602 118.042 749.795 115.573C751.602 115.633 754.071 115.663 757.202 115.663C759.671 115.663 760.906 114.398 760.906 111.869V106.088H743.833V106.63L744.194 129.574C744.194 130.839 743.532 131.471 742.207 131.471H728.838C727.513 131.471 726.851 130.839 726.851 129.574L727.212 106.63V106.088H711.313V115.934L711.494 124.967C711.494 125.931 711.374 126.533 711.133 126.774C710.892 126.955 710.32 127.045 709.417 127.045H697.041C696.017 127.045 695.415 126.894 695.234 126.593C695.054 126.413 694.963 125.871 694.963 124.967L695.415 114.76V105.365L694.963 94.9771C694.963 93.7726 695.656 93.1704 697.041 93.1704L719.263 93.5317H727.212V85.2212H711.855L688.008 85.5825C686.984 85.5825 686.382 85.432 686.201 85.1309C686.021 84.89 685.93 84.2878 685.93 83.3242V73.9297C685.93 72.8457 686.051 72.1833 686.292 71.9424C686.532 71.7617 687.104 71.6714 688.008 71.6714L711.855 72.0327H727.212V63.7222H707.068L703.726 68.3291C702.039 70.5573 700.745 71.6714 699.841 71.6714C699.239 71.6714 697.764 70.8584 695.415 69.2324C692.886 67.6064 689.845 66.3117 686.292 65.3481C692.073 59.7476 696.529 53.605 699.661 46.9204C701.166 43.4276 702.13 40.3864 702.551 37.7969C709.718 39.182 714.294 40.1154 716.282 40.5972C718.028 41.1392 718.901 41.8317 718.901 42.6748C718.901 43.4577 718.48 44.1803 717.637 44.8428C716.673 45.6257 715.68 47.1613 714.656 49.4497L714.023 50.624H727.212C727.031 44.0599 726.64 39.0615 726.038 35.6289C732.782 35.8096 738.413 36.1709 742.93 36.7129C744.917 36.8936 745.911 37.5861 745.911 38.7905C745.911 39.2121 745.459 40.5671 744.556 42.8555C744.074 44.6621 743.833 47.2516 743.833 50.624H752.686L774.185 50.2627C775.148 50.2627 775.72 50.3831 775.901 50.624C776.082 50.9251 776.172 51.5273 776.172 52.4307V62.0962C776.172 63.0597 776.051 63.6318 775.811 63.8125C775.63 63.9932 775.088 64.0835 774.185 64.0835L752.686 63.7222H743.833V72.0327H756.57L780.056 71.6714C781.08 71.6714 781.682 71.8219 781.863 72.123C782.043 72.3639 782.134 72.9661 782.134 73.9297V83.3242C782.134 84.4082 782.013 85.0706 781.772 85.3115C781.532 85.4922 780.959 85.5825 780.056 85.5825L756.57 85.2212H743.833V93.5317H752.686L774.907 93.1704C776.292 93.1704 776.985 93.7726 776.985 94.9771L776.804 102.023V114.76C776.804 118.012 775.931 120.752 774.185 122.98L778.972 123.341C781.2 123.642 782.314 124.425 782.314 125.69C782.314 126.834 781.953 128.069 781.23 129.394C780.448 130.598 780.056 132.886 780.056 136.259H825.222L848.167 135.897C849.13 135.897 849.732 136.018 849.973 136.259C850.154 136.5 850.244 137.042 850.244 137.885V150.17C850.244 151.073 850.124 151.645 849.883 151.886C849.702 152.067 849.13 152.157 848.167 152.157L825.222 151.796H821.88C826.095 154.325 830.01 157.095 833.623 160.106C834.827 161.19 835.43 162.124 835.43 162.907C835.43 164.051 834.617 164.834 832.991 165.255C831.184 165.858 829.106 166.972 826.758 168.598C825.252 169.621 821.549 172.03 815.647 175.824C826.366 180.943 839.194 184.707 854.128 187.116C851.057 190.368 848.407 194.463 846.179 199.401C844.674 202.593 843.258 204.188 841.934 204.188C841.331 204.188 839.946 203.948 837.778 203.466C804.416 193.77 781.17 176.547 768.042 151.796H766.597C762.261 155.771 757.202 159.655 751.421 163.449V183.593C762.261 181.907 773.793 179.558 786.018 176.547C785.416 179.618 785.055 183.382 784.934 187.838C784.814 189.886 784.452 191.12 783.85 191.542C783.308 191.964 781.622 192.536 778.792 193.258C763.254 196.992 745.549 200.425 725.676 203.556C722.786 203.917 720.588 204.55 719.082 205.453C717.576 206.296 716.523 206.718 715.92 206.718C714.716 206.718 713.843 205.845 713.301 204.098C712.397 201.448 710.982 196.149 709.055 188.2C715.017 187.899 721.611 187.357 728.838 186.574L733.806 186.032V172.843C722.364 178.022 709.868 182.238 696.318 185.49C694.09 185.972 692.675 186.212 692.073 186.212C690.627 186.212 689.333 184.677 688.188 181.605C686.562 177.45 684.274 174.048 681.323 171.398C705.894 167.604 725.857 161.07 741.213 151.796H709.597ZM802.097 167.694C807.035 164.442 811.221 161.311 814.653 158.3C816.942 156.192 818.869 154.024 820.435 151.796H786.741C791.016 157.938 796.135 163.238 802.097 167.694ZM801.736 111.779C805.951 112.2 810.829 112.411 816.37 112.411C819.26 112.411 821.248 111.959 822.332 111.056C823.295 110.273 823.777 108.918 823.777 106.991V60.1992C823.777 50.4434 823.295 42.6748 822.332 36.8936C828.775 37.0742 835.068 37.4958 841.211 38.1582C843.198 38.3991 844.192 39.0314 844.192 40.0552C844.192 40.5972 843.74 41.8919 842.837 43.9395C842.114 45.8665 841.753 51.166 841.753 59.8379V96.061L841.934 112.23C841.934 117.53 839.976 121.655 836.062 124.606C832.449 127.376 824.59 128.852 812.485 129.032C809.354 129.032 807.517 128.791 806.975 128.31C806.433 127.828 805.981 126.413 805.62 124.064C804.897 119.367 803.603 115.272 801.736 111.779ZM787.915 46.0171C795.382 46.1978 801.435 46.5591 806.072 47.1011C807.939 47.2817 808.872 47.9442 808.872 49.0884C808.872 49.269 808.481 50.4434 807.698 52.6113C807.096 54.1771 806.794 58.1216 806.794 64.4448V83.3242L807.156 100.397C807.156 101.421 807.035 102.053 806.794 102.294C806.554 102.475 806.012 102.565 805.168 102.565H790.806C789.842 102.565 789.27 102.444 789.089 102.204C788.909 101.963 788.818 101.361 788.818 100.397L789.18 83.3242V64.4448C789.18 56.8569 788.758 50.7144 787.915 46.0171ZM916.638 107.533C924.226 99.4635 931.362 89.4367 938.047 77.4526C943.467 67.757 947.622 58.5431 950.513 49.811C952.078 44.8729 953.072 40.1756 953.494 35.7192C961.684 37.285 967.766 38.6701 971.741 39.8745C974.089 40.4165 975.264 41.3198 975.264 42.5845C975.264 43.9696 974.692 45.1439 973.547 46.1074C971.982 47.4925 970.386 50.5036 968.76 55.1406C966.833 60.3799 964.936 64.9567 963.069 68.8711H1011.4L1034.25 68.5098C1035.33 68.5098 1036 68.6302 1036.24 68.8711C1036.42 69.112 1036.51 69.7142 1036.51 70.6777V84.2275C1036.51 85.2513 1036.39 85.8836 1036.15 86.1245C1035.85 86.3052 1035.21 86.3955 1034.25 86.3955L1011.4 86.0342H981.226V108.075H1004.89L1025.4 107.714C1026.36 107.714 1026.96 107.834 1027.2 108.075C1027.39 108.316 1027.48 108.858 1027.48 109.701V123.251C1027.48 124.154 1027.36 124.726 1027.11 124.967C1026.93 125.148 1026.36 125.238 1025.4 125.238L1004.89 124.877H981.226V147.55H1004.89L1025.76 147.189C1027.14 147.189 1027.84 147.791 1027.84 148.996V162.726C1027.84 163.69 1027.72 164.292 1027.48 164.533C1027.29 164.774 1026.72 164.894 1025.76 164.894L1004.89 164.533H981.226V174.74L981.587 203.556C981.587 204.52 981.436 205.122 981.135 205.363C980.955 205.543 980.413 205.634 979.509 205.634H963.792C962.828 205.634 962.256 205.483 962.075 205.182C961.895 205.001 961.804 204.459 961.804 203.556L962.166 174.74V86.0342H954.758C947.532 99.1624 940.125 110.303 932.537 119.457C930.911 121.444 929.736 122.438 929.014 122.438C928.11 122.438 926.936 121.203 925.491 118.734C922.961 114.158 920.011 110.424 916.638 107.533ZM866.685 109.43C882.282 93.9533 894.808 73.6587 904.263 48.5464C905.527 45.2342 906.641 40.8079 907.605 35.2676C917.361 37.9775 923.323 39.7541 925.491 40.5972C927.478 41.4403 928.472 42.3737 928.472 43.3975C928.472 44.5417 927.839 45.6558 926.575 46.7397C925.37 47.7635 924.015 50.353 922.51 54.5083C919.258 62.9393 915.645 71.0692 911.67 78.8979V175.282L912.031 203.375C912.031 204.339 911.911 204.941 911.67 205.182C911.429 205.363 910.857 205.453 909.954 205.453H894.236C893.272 205.453 892.7 205.333 892.52 205.092C892.339 204.851 892.249 204.279 892.249 203.375L892.61 175.282V132.736C892.61 128.039 892.73 120.27 892.971 109.43C889.719 114.067 885.082 119.728 879.06 126.413C877.795 127.918 876.742 128.671 875.898 128.671C874.814 128.671 874.032 127.617 873.55 125.509C871.984 118.644 869.696 113.284 866.685 109.43ZM1113.11 189.645C1125.21 179.588 1133.47 167.303 1137.86 152.79C1141.35 141.227 1143.1 125.268 1143.1 104.914V82.3306C1143.1 71.5509 1142.65 61.5241 1141.75 52.25C1148.61 53.3942 1154.48 54.8696 1159.36 56.6763C1172.61 53.605 1184.56 49.2088 1195.22 43.4878C1198.35 42.0425 1201.64 39.9046 1205.07 37.0742C1209.46 40.6875 1213.53 45.0535 1217.26 50.1724C1218.29 51.3166 1218.8 52.5511 1218.8 53.876C1218.8 55.0202 1217.81 55.7127 1215.82 55.9536C1214.43 56.0741 1212.08 56.7967 1208.77 58.1216C1191.91 65.047 1176.19 70.1659 1161.62 73.478V96.2417H1195.4L1220.79 95.8804C1221.75 95.8804 1222.32 96.0008 1222.5 96.2417C1222.68 96.4826 1222.77 97.0246 1222.77 97.8677V111.598C1222.77 112.562 1222.65 113.134 1222.41 113.314C1222.17 113.495 1221.63 113.585 1220.79 113.585C1220.55 113.585 1219.67 113.555 1218.17 113.495C1212.99 113.375 1207.27 113.284 1201 113.224V180.341L1201.36 203.466C1201.36 204.73 1200.73 205.363 1199.47 205.363H1184.29C1183.09 205.363 1182.49 204.73 1182.49 203.466L1182.67 180.341V113.224H1161.62C1161.26 133.519 1159.09 149.869 1155.11 162.274C1150.66 176.186 1143.07 188.681 1132.35 199.762C1130.54 201.75 1129.25 202.743 1128.47 202.743C1127.74 202.743 1126.51 201.689 1124.76 199.582C1121.33 195.607 1117.45 192.295 1113.11 189.645ZM1069.66 199.672C1068.34 202.141 1067.28 203.375 1066.5 203.375C1065.84 203.375 1064.6 202.382 1062.8 200.395C1059.06 196.119 1055.06 192.837 1050.78 190.548C1057.29 181.214 1061.62 169.049 1063.79 154.054C1065.23 143.997 1065.96 130.026 1065.96 112.14L1065.6 81.3369C1065.6 80.3132 1065.72 79.7109 1065.96 79.5303C1066.2 79.3496 1066.74 79.2593 1067.58 79.2593L1086.28 79.6206H1109.41L1127.92 79.2593C1128.89 79.2593 1129.49 79.3797 1129.73 79.6206C1129.91 79.8615 1130 80.4336 1130 81.3369L1129.64 98.5V126.774L1130 143.576C1130 144.66 1129.85 145.322 1129.55 145.563C1129.37 145.744 1128.83 145.834 1127.92 145.834H1113.65C1112.69 145.834 1112.12 145.683 1111.94 145.382C1111.76 145.141 1111.67 144.539 1111.67 143.576V138.607H1083.93C1082.61 163.419 1077.85 183.773 1069.66 199.672ZM1111.67 96.061H1084.48V122.167H1111.67V96.061ZM1133.07 45.3848C1134.04 45.3848 1134.61 45.5052 1134.79 45.7461C1134.97 45.987 1135.06 46.5591 1135.06 47.4624V60.9219C1135.06 61.9456 1134.94 62.578 1134.7 62.8188C1134.46 62.9995 1133.92 63.0898 1133.07 63.0898L1111.57 62.7285H1080.5L1059.09 63.0898C1058.07 63.0898 1057.47 62.9393 1057.29 62.6382C1057.1 62.3973 1057.01 61.8252 1057.01 60.9219V47.4624C1057.01 46.4386 1057.13 45.8364 1057.38 45.6558C1057.62 45.4751 1058.19 45.3848 1059.09 45.3848L1080.5 45.7461H1111.57L1133.07 45.3848Z" fill="black"/>
</g>
<defs>
<clipPath id="clip0_1_2">
<rect width="1230" height="260" fill="white"/>
</clipPath>
<clipPath id="clip1_1_2">
<rect width="260" height="260" fill="white"/>
</clipPath>
</defs>
</svg>
