<svg xmlns="http://www.w3.org/2000/svg" width="236" height="30.526" viewBox="0 0 236 30.526"><g transform="translate(45.031 4.405)"><path d="M48.46,11.051q1.866,1.638,3.163,2.935a30.765,30.765,0,0,0,1.013-5.473H48.812l-2.618.046a.381.381,0,0,1-.238-.046.421.421,0,0,1-.035-.217V6.452c0-.121.016-.193.046-.217A.468.468,0,0,1,46.2,6.2l2.618.046h4.45a1.235,1.235,0,0,0,.535-.091.613.613,0,0,1,.318-.068c.229,0,.538.239.935.717a1.886,1.886,0,0,1,.466.888,2.278,2.278,0,0,1-.285.581,4.674,4.674,0,0,0-.25,1.354,28.724,28.724,0,0,1-1.469,6.316q1.264,1.4,2.641,3.06a.4.4,0,0,1,.113.206c0,.045-.061.133-.182.262L54.8,20.895c-.113.137-.2.2-.262.2-.038,0-.1-.053-.182-.16q-.831-1.1-1.935-2.446a21.074,21.074,0,0,1-5.007,6.26c-.236.235-.392.352-.467.352s-.231-.163-.467-.488A4.8,4.8,0,0,0,45.1,23.264a18.816,18.816,0,0,0,5.622-6.783,47.115,47.115,0,0,0-3.869-3.812q-.126-.091-.126-.159c0-.061.058-.141.171-.239l1.115-1.149c.106-.114.186-.171.239-.171A.378.378,0,0,1,48.46,11.051Zm18.9,12.336A7.163,7.163,0,0,0,66.246,25.1c-.166.342-.307.513-.42.513a1.2,1.2,0,0,1-.489-.263,18.7,18.7,0,0,1-4.621-4.461,23.984,23.984,0,0,1-5.759,4.723,1.747,1.747,0,0,1-.534.262c-.092,0-.24-.179-.444-.534a5.468,5.468,0,0,0-1.206-1.492A20.079,20.079,0,0,0,59.339,18.7,27.037,27.037,0,0,1,56.6,8.467c-.221.016-.417.023-.592.023-.121,0-.193-.016-.217-.046a.436.436,0,0,1-.034-.217V6.441c0-.137.015-.221.046-.251a.39.39,0,0,1,.2-.034l2.8.045h5.064a1.415,1.415,0,0,0,.58-.091.833.833,0,0,1,.376-.091q.238,0,1,.8.512.547.512.831a.886.886,0,0,1-.262.512,1.826,1.826,0,0,0-.3.819A23.723,23.723,0,0,1,62.3,18.812,18.974,18.974,0,0,0,67.361,23.387ZM63.424,8.444H58.871a24.779,24.779,0,0,0,2.037,8.046A19.729,19.729,0,0,0,63.424,8.444Z" transform="translate(-45.102 -4.415)"/><path d="M71.759,10.957a20.94,20.94,0,0,1,3.369,2.379.33.33,0,0,1,.1.2.61.61,0,0,1-.114.262l-1.069,1.389c-.113.16-.2.239-.25.239a.509.509,0,0,1-.217-.113,16.614,16.614,0,0,0-3.29-2.572q-.159-.091-.159-.183a.563.563,0,0,1,.137-.262l1.024-1.229c.1-.121.186-.183.262-.183A.458.458,0,0,1,71.759,10.957ZM70.2,24.523a13.453,13.453,0,0,0,1.046-1.8,28.531,28.531,0,0,0,2-5.667,9.678,9.678,0,0,0,1.286,1.1c.341.221.512.417.512.592a2.627,2.627,0,0,1-.091.523,44.861,44.861,0,0,1-1.89,5.338,2.675,2.675,0,0,0-.3.934c0,.25-.08.375-.239.375a1.274,1.274,0,0,1-.513-.183A16.856,16.856,0,0,1,70.2,24.523ZM72.761,5.13a18.2,18.2,0,0,1,3.2,2.4.276.276,0,0,1,.126.194.658.658,0,0,1-.148.3L74.912,9.386c-.107.137-.188.206-.24.206a.416.416,0,0,1-.2-.1,14.652,14.652,0,0,0-3.21-2.641c-.1-.054-.159-.106-.159-.16a.638.638,0,0,1,.147-.262l1.047-1.184c.107-.129.194-.193.263-.193A.492.492,0,0,1,72.761,5.13Zm2.128,6.259a13.083,13.083,0,0,0,3.426-5.076,6.123,6.123,0,0,0,.421-1.775q1.15.159,2.209.4c.28.068.42.187.42.353a.61.61,0,0,1-.2.4,2.306,2.306,0,0,0-.535.786,7.269,7.269,0,0,1-.307.728h7.647l3.05-.023a.43.43,0,0,1,.228.034.324.324,0,0,1,.035.194V9.09c0,.13-.02.209-.058.239-.022.023-.091.034-.2.034l-3.05-.045H79.293q-.376.659-.911,1.423l2.935.045h5.11l2.925-.045a.25.25,0,0,1,.284.284Q89.557,12.2,89.523,13l-.113,2.606,1.979-.045a.4.4,0,0,1,.24.045.415.415,0,0,1,.033.2v1.639a.356.356,0,0,1-.039.211.407.407,0,0,1-.234.04l-.273-.012q-.819-.022-1.854-.034-.069,1.116-.252,3.016l1.673-.046a.423.423,0,0,1,.252.046.415.415,0,0,1,.033.2V22.45c0,.114-.016.185-.045.211a.44.44,0,0,1-.24.04c-.022,0-.109,0-.262-.012-.509-.016-1.051-.026-1.627-.034l-.046.512a3.365,3.365,0,0,1-.989,2.22,3.157,3.157,0,0,1-2.083.6q-.957,0-1.241-.023c-.189-.015-.307-.061-.352-.137a2.911,2.911,0,0,1-.206-.614,5.52,5.52,0,0,0-.694-1.514,19.842,19.842,0,0,0,2.186.1q1.059,0,1.172-1.149H78.735q-.171.762-.308,1.3c-.046.25-.164.375-.353.375a6.472,6.472,0,0,1-.911-.137A8.885,8.885,0,0,1,76.22,24c-.137-.045-.2-.106-.2-.183a.771.771,0,0,1,.057-.228,14.756,14.756,0,0,0,.558-1.844q.488-2.071.819-4.086-.831.012-1.514.034l-.467.012a.361.361,0,0,1-.228-.046.387.387,0,0,1-.035-.2V15.814c0-.121.02-.193.058-.216.022-.023.091-.034.2-.034l2.265.045q.136-.978.317-2.935c.047-.493.068-1.013.068-1.56q-.454.638-1.092,1.389-.307.376-.466.375-.138,0-.467-.4A5.146,5.146,0,0,0,74.889,11.389Zm4.268,9.286H81.74q.159-1,.4-3.016H79.645Q79.431,19.129,79.157,20.676Zm1.024-7.91q-.1,1.378-.285,2.846h2.446q.091-.933.194-2.846H80.181Zm6.873,4.894H84.324q-.228,2.014-.376,3.016h2.846Q86.917,19.663,87.054,17.66Zm.251-4.894H84.721l-.2,2.846h2.675Q87.282,13.654,87.3,12.766Z" transform="translate(-45.141 -4.412)"/><path d="M97.688,23.911l-2.936.046c-.121,0-.193-.016-.217-.046a.4.4,0,0,1-.033-.2V21.749q0-.193.045-.228a.39.39,0,0,1,.2-.034l2.936.045h5.622V9.47h-4.1l-3.152.046c-.121,0-.193-.015-.217-.046a.415.415,0,0,1-.033-.2V7.3c0-.121.015-.193.045-.217a.406.406,0,0,1,.2-.034l3.153.046h11.175l3.129-.046c.122,0,.194.016.217.046a.39.39,0,0,1,.034.2V9.266c0,.122-.016.194-.045.217a.408.408,0,0,1-.206.034l-3.129-.046h-4.45V21.533h5.94l2.936-.045a.372.372,0,0,1,.229.045.454.454,0,0,1,.033.217v1.958a.358.358,0,0,1-.039.211.38.38,0,0,1-.223.04l-2.936-.046H97.688Z" transform="translate(-45.18 -4.416)"/><path d="M122.421,20.323l-2.947.046a.382.382,0,0,1-.24-.046.4.4,0,0,1-.034-.2V18.73a.387.387,0,0,1,.046-.239.47.47,0,0,1,.229-.034l2.947.046h5.747V17.251h-3.278l-3.221.046c-.121,0-.189-.016-.2-.046a.546.546,0,0,1-.022-.217V15.7a.456.456,0,0,1,.034-.24.329.329,0,0,1,.193-.034l3.221.046h3.278V14.248h-4.382l-3.118.045c-.137,0-.217-.015-.239-.045s-.046-.084-.046-.183V12.687c0-.13.02-.206.058-.229a.468.468,0,0,1,.228-.034l3.118.046h1.423A15.577,15.577,0,0,0,124.472,11a.53.53,0,0,1-.08-.217c0-.068.08-.129.239-.182l1.514-.421h-3.721l-2.947.045a.391.391,0,0,1-.24-.045.4.4,0,0,1-.034-.2V8.533a.419.419,0,0,1,.046-.251.47.47,0,0,1,.229-.034l2.947.046h.159a11.833,11.833,0,0,0-1.332-2,.261.261,0,0,1-.079-.16c0-.068.091-.147.273-.239l1.343-.626A.612.612,0,0,1,123,5.2c.068,0,.145.054.228.16A13.3,13.3,0,0,1,124.8,7.623a.465.465,0,0,1,.068.172c0,.053-.088.129-.262.228l-.56.272h2.162V6.758a10.713,10.713,0,0,0-.137-2.025q1.411.045,2.253.137c.19.022.285.091.285.2a1.542,1.542,0,0,1-.091.4,3.92,3.92,0,0,0-.137,1.286V8.294h1.889V6.781a10.226,10.226,0,0,0-.147-2.049,20.673,20.673,0,0,1,2.241.159c.2.023.308.1.308.217a1.116,1.116,0,0,1-.091.363,3.631,3.631,0,0,0-.148,1.286V8.294h1.445a16.807,16.807,0,0,0,1.069-1.912,4.5,4.5,0,0,0,.4-1.252,17.975,17.975,0,0,1,2.253.6q.307.1.308.3a.533.533,0,0,1-.229.4,2.274,2.274,0,0,0-.4.443q-.3.467-.955,1.423h.329l2.935-.046c.122,0,.194.02.217.058a.467.467,0,0,1,.034.228V9.979c0,.121-.016.193-.046.216a.39.39,0,0,1-.2.034l-2.935-.045h-4.086q.967.181,1.844.421c.2.053.308.147.308.284a.381.381,0,0,1-.262.341,2.286,2.286,0,0,0-.318.489l-.421.752h1.514l3.118-.046c.129,0,.2.016.229.046a.436.436,0,0,1,.034.217v1.377c0,.152-.088.228-.263.228l-3.118-.045h-4.712v1.228h3.71l3.209-.046c.13,0,.2.02.229.058a.436.436,0,0,1,.034.217v1.331a.378.378,0,0,1-.04.223c-.026.027-.1.04-.223.04l-3.209-.046h-3.71V18.5h6.134l2.935-.046c.122,0,.194.02.217.058a.433.433,0,0,1,.034.216V20.12a.346.346,0,0,1-.04.211.338.338,0,0,1-.211.04l-2.935-.046h-4.153a21.824,21.824,0,0,0,7.761,3.027,6.513,6.513,0,0,0-.911,1.5c-.167.4-.337.6-.512.6a3.237,3.237,0,0,1-.535-.113,19.665,19.665,0,0,1-7.83-4.177l.114,4.609a.37.37,0,0,1-.046.229.4.4,0,0,1-.2.034h-1.98c-.159,0-.239-.088-.239-.263q0-.114.023-.728.055-1.878.068-3.79a19.253,19.253,0,0,1-7.477,4.177,1.992,1.992,0,0,1-.534.137q-.228,0-.513-.6a5.144,5.144,0,0,0-.934-1.4,20.132,20.132,0,0,0,7.431-3.244h-3.766Zm9.616-9.206a5.337,5.337,0,0,0,.263-.934h-5.941a.643.643,0,0,1,.183.182,15.519,15.519,0,0,1,1.047,2.106h3.823Q131.719,11.879,132.037,11.117Z" transform="translate(-45.218 -4.413)"/><path d="M151.217,12.357a14.785,14.785,0,0,0,1.958-5.018,6.794,6.794,0,0,0,.171-1.446,15.47,15.47,0,0,1,2,.421q.376.126.375.308a.956.956,0,0,1-.193.444,3.071,3.071,0,0,0-.273.865q-.046.205-.263,1h1.685V8.181a26.78,26.78,0,0,0-.171-3.38q1.263.033,2.366.159c.267.03.4.11.4.239a1.4,1.4,0,0,1-.148.513,8.779,8.779,0,0,0-.171,2.424v.8h1.707l2.822-.046c.122,0,.194.016.217.046a.455.455,0,0,1,.034.228v1.661c0,.122-.015.194-.045.217a.408.408,0,0,1-.206.034l-2.822-.046h-1.707v3.05h2.4l3.13-.045a.2.2,0,0,1,.228.228v1.685a.473.473,0,0,1-.034.228c-.022.031-.088.046-.193.046l-3.13-.046h-1.65a19.085,19.085,0,0,0,5.543,5.781,6.736,6.736,0,0,0-.978,1.661c-.13.313-.251.467-.364.467s-.27-.1-.489-.308a20.19,20.19,0,0,1-4.529-5.736q.022,2.323.091,5.338.045,2.356.046,2.379c0,.159-.084.239-.251.239h-1.912c-.175,0-.262-.08-.262-.239q0-.093.068-2.868.045-2.661.08-4.654a18.4,18.4,0,0,1-4.825,5.656,1.27,1.27,0,0,1-.535.329q-.159,0-.4-.512a4.642,4.642,0,0,0-1-1.354,17.679,17.679,0,0,0,5.873-6.179h-.773l-3.141.046c-.145,0-.225-.023-.239-.068q-.467.888-.6,1.24-.181.376-.284.375c-.062,0-.16-.141-.3-.421a19.489,19.489,0,0,1-1.309-3.038q.01,3.972.1,8.3.011.933.046,2.434.01.671.011.763a.366.366,0,0,1-.046.229.4.4,0,0,1-.2.034h-1.889c-.137,0-.217-.02-.239-.057s-.046-.092-.046-.206q0-.1.034-1.706.1-4.929.137-8.9a21.176,21.176,0,0,1-2.378,5.429c-.152.25-.271.375-.353.375s-.183-.133-.273-.4a7.672,7.672,0,0,0-.8-1.74,21.711,21.711,0,0,0,3.539-7.477h-.513l-2.185.046a.365.365,0,0,1-.228-.046.436.436,0,0,1-.034-.217V9.512a.358.358,0,0,1,.046-.228.422.422,0,0,1,.216-.034l2.185.045h.706V7.907a19.827,19.827,0,0,0-.193-3.175,22.659,22.659,0,0,1,2.332.159c.267.03.4.11.4.239a1.382,1.382,0,0,1-.148.489,8.335,8.335,0,0,0-.159,2.253V9.295L151.2,9.25a.366.366,0,0,1,.228.045.436.436,0,0,1,.034.217v1.649c0,.13-.016.206-.046.229a.422.422,0,0,1-.216.034l-.523-.012q-.547-.022-1.24-.034a17.725,17.725,0,0,0,2.253,3.836v-.956c0-.151.087-.228.262-.228l3.141.045h1.593v-3.05h-2.4a17.627,17.627,0,0,1-.82,1.844q-.238.467-.375.467a1.285,1.285,0,0,1-.534-.308A4.854,4.854,0,0,0,151.217,12.357Z" transform="translate(-45.257 -4.413)"/><path d="M171.318,11.447l-2.993.046c-.106,0-.171-.014-.193-.04a.488.488,0,0,1-.034-.245V9.376a.488.488,0,0,1,.034-.251.329.329,0,0,1,.193-.034l2.993.046h8.365l-.022-.956a25.622,25.622,0,0,0-.194-3.335q1.776.046,2.538.138.376.045.375.284a3.6,3.6,0,0,1-.137.489,5.316,5.316,0,0,0-.125,1.457q0,.285.011.9V9.136H185l2.981-.046c.121,0,.193.02.217.058a.468.468,0,0,1,.034.228v1.832a.417.417,0,0,1-.046.251.361.361,0,0,1-.2.034L185,11.447h-2.777a29.935,29.935,0,0,0,1.331,7.977q1.116,3.449,2.095,3.449.831,0,1.047-3.415a6.47,6.47,0,0,0,1.514,1.059,2.326,2.326,0,0,1,.512.329.432.432,0,0,1,.114.318,4.257,4.257,0,0,1-.046.443q-.659,4.256-2.81,4.222Q183.121,25.8,181.4,20.7a36.342,36.342,0,0,1-1.6-9.252h-8.482ZM176,16.613h-.911v4.575q2.652-.648,4.542-1.309a13.833,13.833,0,0,0-.069,1.469,1.467,1.467,0,0,1-.1.728,1.62,1.62,0,0,1-.591.25,79.322,79.322,0,0,1-8.342,2.265,3.112,3.112,0,0,0-.978.353,1.088,1.088,0,0,1-.421.159c-.151,0-.262-.1-.329-.308q-.217-.648-.6-2.355a13.613,13.613,0,0,0,2.23-.273l2.241-.421V16.613h-.8l-2.766.058c-.175,0-.263-.08-.263-.239V14.691a.417.417,0,0,1,.046-.251.436.436,0,0,1,.217-.034l2.766.046H176l2.755-.046c.129,0,.209.019.239.057a.473.473,0,0,1,.034.229v1.741c0,.113-.016.182-.046.2a.511.511,0,0,1-.228.034Zm9-11.369a10.714,10.714,0,0,1,2,2.14.364.364,0,0,1,.08.194c0,.076-.08.167-.239.273l-1.1.751a.655.655,0,0,1-.3.137c-.068,0-.141-.061-.217-.182a10.089,10.089,0,0,0-1.82-2.22.314.314,0,0,1-.114-.183c0-.061.072-.141.217-.239l.977-.672a.722.722,0,0,1,.274-.137A.38.38,0,0,1,185,5.244Z" transform="translate(-45.296 -4.413)"/><path d="M213.006,12.47a7.289,7.289,0,0,0-1,1.741q-.228.58-.4.58a1.82,1.82,0,0,1-.535-.183,26.167,26.167,0,0,1-4.449-2.47v1.729c0,.122-.016.194-.046.217a.39.39,0,0,1-.2.034l-2.641-.046h-3.585l-2.641.046c-.121,0-.193-.015-.216-.046a.39.39,0,0,1-.034-.2V12.094a27.028,27.028,0,0,1-4.222,2.515,1.66,1.66,0,0,1-.558.217c-.106,0-.247-.194-.42-.58a5.453,5.453,0,0,0-1.047-1.549,18.9,18.9,0,0,0,8.945-6.771,7.214,7.214,0,0,0,.819-1.514,17.728,17.728,0,0,1,2.516.489c.281.068.421.175.421.318a.388.388,0,0,1-.229.375,1.879,1.879,0,0,0-.329.2A21.612,21.612,0,0,0,213.006,12.47Zm-17.242,5.942-3.085.045a.389.389,0,0,1-.239-.045.4.4,0,0,1-.034-.206V16.454c0-.121.016-.193.046-.217a.468.468,0,0,1,.228-.034l3.085.046h12.416l3.084-.046a.387.387,0,0,1,.239.046.4.4,0,0,1,.034.2v1.752a.346.346,0,0,1-.04.211c-.026.027-.1.04-.233.04l-3.084-.045h-7.193a44.14,44.14,0,0,1-2.083,4.381q3.642-.205,7.181-.58-1.069-1.309-1.7-1.98a.326.326,0,0,1-.1-.193c0-.076.08-.152.239-.229l1.491-.774a.551.551,0,0,1,.251-.091.376.376,0,0,1,.239.137,43,43,0,0,1,4.336,5.417.362.362,0,0,1,.08.193c0,.076-.064.156-.194.239l-1.615,1.059a.72.72,0,0,1-.273.137c-.062,0-.126-.054-.194-.16q-.467-.783-1.16-1.82-4.518.569-12.586,1.184a1.881,1.881,0,0,0-.843.217.62.62,0,0,1-.4.137q-.25,0-.318-.33a24.2,24.2,0,0,1-.488-2.4q.533.046,1.126.046.569,0,1.411-.046l.752-.022a39.365,39.365,0,0,0,2.049-4.517h-2.427Zm1.821-6.545q.409.045,2.56.046h3.585q2,0,2.516-.046A21.383,21.383,0,0,1,201.842,7.6,21.626,21.626,0,0,1,197.586,11.867Z" transform="translate(-45.332 -4.412)"/><path d="M214.738,17.546a16.406,16.406,0,0,0,3.835-3.334,14.652,14.652,0,0,0,2.254-3.562h-2.641l-2.47.046a.366.366,0,0,1-.229-.046.4.4,0,0,1-.034-.2V8.716c0-.121.02-.2.058-.228.022-.023.091-.034.2-.034l2.47.057h.443V7.555a16.742,16.742,0,0,0-.183-2.846q1.252.034,2.424.16c.251.022.375.1.375.239a1.441,1.441,0,0,1-.137.489,6.106,6.106,0,0,0-.147,1.854V8.51h.977a.813.813,0,0,0,.444-.1.7.7,0,0,1,.262-.092q.228,0,.865.6.626.626.626.843a.5.5,0,0,1-.228.375,2.945,2.945,0,0,0-.547.672,23.344,23.344,0,0,1-1.98,3.4,13.709,13.709,0,0,0,3.427,2.731,5.4,5.4,0,0,0-.934,1.514c-.16.341-.309.512-.444.512a.924.924,0,0,1-.466-.284,17.091,17.091,0,0,1-2-2.163v6.555l.045,2.743a.366.366,0,0,1-.045.228.539.539,0,0,1-.24.034h-1.866a.389.389,0,0,1-.239-.045.441.441,0,0,1-.034-.217l.046-2.743V17.5a23.353,23.353,0,0,1-2.22,1.935,1.251,1.251,0,0,1-.489.308c-.1,0-.221-.179-.364-.534A6.437,6.437,0,0,0,214.738,17.546Zm11.677,7.649-3.129.045c-.122,0-.194-.015-.217-.045a.39.39,0,0,1-.034-.2V23.146a.372.372,0,0,1,.04-.223.346.346,0,0,1,.211-.04l3.129.046h1.958V14.223h-1.047l-2.935.023a.361.361,0,0,1-.2-.034.358.358,0,0,1-.034-.206V12.163c0-.114.015-.183.045-.206a.478.478,0,0,1,.194-.022l2.935.022h1.047V8.248a25.551,25.551,0,0,0-.183-3.515q1.5.045,2.584.159.376.045.375.239a1.121,1.121,0,0,1-.114.489,8.867,8.867,0,0,0-.193,2.56v3.778h1.469l2.935-.022a.43.43,0,0,1,.228.034.327.327,0,0,1,.034.194v1.843c0,.122-.019.194-.057.217a.49.49,0,0,1-.2.023l-2.935-.023h-1.469v8.706h2.117l3.106-.046a.385.385,0,0,1,.239.046.424.424,0,0,1,.034.217V24.99q0,.181-.045.216a.458.458,0,0,1-.229.034l-3.106-.045Z" transform="translate(-45.369 -4.412)"/></g><path d="M0,15.263H6.515L22.086,0H15.571Z" fill="#e60012"/><path d="M0,15.287H6.515L22.086,30.55H15.571Z" transform="translate(0 -0.024)"/><path d="M12.608,15.263h6.517L34.694,0H28.178Z" transform="translate(-0.02)"/><path d="M12.608,15.287h6.517L34.694,30.55H28.178Z" transform="translate(-0.02 -0.024)" fill="#e60012"/></svg>