<svg xmlns="http://www.w3.org/2000/svg" width="681" height="441" viewBox="0 0 681 441"><g transform="translate(-369.5 -3808.5)"><g transform="translate(369.5 3808.5)"><rect width="142" height="44" transform="translate(0.5 144.5)" fill="#fff"/><path d="M-.5-.5h143v45H-.5Zm142,1H.5v43h141Z" transform="translate(0.5 144.5)"/><rect width="109.13" height="15.818" transform="translate(21.814 158.456)" fill="none"/><text transform="translate(21.815 169.82)" font-size="13" font-family="YuGothic-Regular, Yu Gothic"><tspan x="0" y="0">代表取締役社長</tspan></text><rect width="142" height="44" transform="translate(314.5 0.5)" fill="#fff"/><path d="M-.5-.5h143v45H-.5Zm142,1H.5v43h141Z" transform="translate(314.5 0.5)"/><rect width="46.221" height="15.818" transform="translate(362.626 14.479)" fill="none"/><text transform="translate(362.625 25.843)" font-size="13" font-family="YuGothic-Regular, Yu Gothic"><tspan x="0" y="0">総務部</tspan></text><rect width="142" height="44" transform="translate(314.5 96.5)" fill="#fff"/><path d="M-.5-.5h143v45H-.5Zm142,1H.5v43h141Z" transform="translate(314.5 96.5)"/><rect width="46.221" height="15.818" transform="translate(362.626 110.788)" fill="none"/><text transform="translate(362.625 122.152)" font-size="13" font-family="YuGothic-Regular, Yu Gothic"><tspan x="0" y="0">営業部</tspan></text><rect width="142" height="43" transform="translate(314.5 194.5)" fill="#fff"/><path d="M-.5-.5h143v44H-.5Zm142,1H.5v42h141Z" transform="translate(314.5 194.5)"/><rect width="46.221" height="15.818" transform="translate(362.626 208.07)" fill="none"/><text transform="translate(362.625 219.433)" font-size="13" font-family="YuGothic-Regular, Yu Gothic"><tspan x="0" y="0">企画部</tspan></text><rect width="142" height="44" transform="translate(314.5 293.5)" fill="#fff"/><path d="M-.5-.5h143v45H-.5Zm142,1H.5v43h141Z" transform="translate(314.5 293.5)"/><rect width="46.221" height="15.819" transform="translate(362.626 307.297)" fill="none"/><text transform="translate(362.625 318.661)" font-size="13" font-family="YuGothic-Regular, Yu Gothic"><tspan x="0" y="0">工事部</tspan></text><rect width="142" height="44" transform="translate(538.5 243.5)" fill="#fff"/><path d="M-.5-.5h143v45H-.5Zm142,1H.5v43h141Z" transform="translate(538.5 243.5)"/><rect width="76.053" height="15.819" transform="translate(571.458 257.683)" fill="none"/><text transform="translate(571.458 269.047)" font-size="13" font-family="YuGothic-Regular, Yu Gothic"><tspan x="0" y="0">工事第一課</tspan></text><rect width="142" height="44" transform="translate(538.5 341.5)" fill="#fff"/><path d="M-.5-.5h143v45H-.5Zm142,1H.5v43h141Z" transform="translate(538.5 341.5)"/><rect width="78.734" height="15.819" transform="translate(570.117 355.938)" fill="none"/><text transform="translate(570.117 367.302)" font-size="13" font-family="YuGothic-Regular, Yu Gothic"><tspan x="0" y="0">工事第二課</tspan></text><rect width="142" height="44" transform="translate(314.5 396.5)" fill="#fff"/><path d="M-.5-.5h143v45H-.5Zm142,1H.5v43h141Z" transform="translate(314.5 396.5)"/><rect width="100.212" height="15.819" transform="translate(335.63 410.415)" fill="none"/><text transform="translate(335.63 421.78)" font-size="13" font-family="YuGothic-Regular, Yu Gothic"><tspan x="0" y="0">情報システム部</tspan></text><rect width="91" height="44" transform="translate(158.5 67.5)" fill="#fff"/><path d="M-.5-.5h92v45H-.5Zm91,1H.5v43h90Z" transform="translate(158.5 67.5)"/><rect width="63.408" height="15.818" transform="translate(177.465 83.549)" fill="none"/><text transform="translate(177.466 94.913)" font-size="13" font-family="YuGothic-Regular, Yu Gothic"><tspan x="0" y="0">取締役会</tspan></text><path d="M131.33.5H0v-1H131.33Z" transform="translate(142.045 166.852)"/><path d="M40.858.5H0v-1H40.858Z" transform="translate(274.348 22.875)"/><path d="M40.858.5H0v-1H40.858Z" transform="translate(274.348 120.157)"/><path d="M40.858.5H0v-1H40.858Z" transform="translate(274.348 217.438)"/><path d="M40.858.5H0v-1H40.858Z" transform="translate(274.348 418.812)"/><path d="M40.858.5H0v-1H40.858Z" transform="translate(274.348 314.72)"/><path d="M40.858.5H0v-1H40.858Z" transform="translate(498.097 266.079)"/><path d="M.5,97.282h-1V0h1Z" transform="translate(498.583 266.566)"/><path d="M41.831.5H0v-1H41.831Z" transform="translate(456.265 315.693)"/><path d="M40.858.5H0v-1H40.858Z" transform="translate(498.097 363.361)"/><path d="M.5,396.91h-1V0h1Z" transform="translate(273.862 22.388)"/><path d="M.5,55.451h-1V0h1Z" transform="translate(203.819 110.915)"/></g></g></svg>